<?xml version="1.0" encoding="UTF-8" standalone="no"?>
<svg
   viewBox="0 0 24 24"
   version="1.1"
   id="svg2"
   sodipodi:docname="icon.svg"
   inkscape:version="1.4.3 (0d15f75, 2025-12-25)"
   xmlns:inkscape="http://www.inkscape.org/namespaces/inkscape"
   xmlns:sodipodi="http://sodipodi.sourceforge.net/DTD/sodipodi-0.dtd"
   xmlns="http://www.w3.org/2000/svg"
   xmlns:svg="http://www.w3.org/2000/svg">
  <sodipodi:namedview
     id="namedview2"
     pagecolor="#ffffff"
     bordercolor="#000000"
     borderopacity="0.25"
     inkscape:showpageshadow="2"
     inkscape:pageopacity="0.0"
     inkscape:pagecheckerboard="0"
     inkscape:deskcolor="#d1d1d1"
     inkscape:zoom="49.708333"
     inkscape:cx="11.989941"
     inkscape:cy="12"
     inkscape:window-width="2560"
     inkscape:window-height="1411"
     inkscape:window-x="-9"
     inkscape:window-y="-9"
     inkscape:window-maximized="1"
     inkscape:current-layer="svg2" />
  <path
     stroke="currentColor"
     stroke-width="1.5"
     d="M 2,12 C 2,8.229 2,6.343 3.172,5.172 4.344,4.001 6.229,4 10,4 h 4 c 3.771,0 5.657,0 6.828,1.172 C 21.999,6.344 22,8.229 22,12 c 0,3.771 0,5.657 -1.172,6.828 C 19.656,19.999 17.771,20 14,20 H 10 C 6.229,20 4.343,20 3.172,18.828 2.001,17.656 2,15.771 2,12 Z"
     opacity="0.5"
     id="path1"
     style="fill:none;stroke:#000000;stroke-opacity:1" />
  <path
     fill="currentColor"
     d="m 8.25,15.5 a 0.75,0.75 0 0 0 1.5,0 z m 3.414,-6.748 0.498,-0.56 z m -0.414,1.673 a 0.75,0.75 0 0 0 1.5,0 z m 0.498,-1.59 0.56,-0.497 z M 6.336,8.752 5.838,8.192 Z M 5.25,10.425 a 0.75,0.75 0 0 0 1.5,0 z M 6.252,8.835 5.692,8.338 Z M 7,14.75 a 0.75,0.75 0 0 0 0,1.5 z m 4,1.5 a 0.75,0.75 0 0 0 0,-1.5 z m -3.075,-7 H 9 V 7.75 H 7.925 Z M 9,9.25 h 1.075 V 7.75 H 9 Z m 0.75,6.25 v -7 h -1.5 v 7 z m 0.325,-6.25 c 0.455,0 0.726,10e-4 0.922,0.026 0.177,0.022 0.186,0.052 0.17,0.037 L 12.162,8.192 C 11.862,7.924 11.511,7.828 11.182,7.787 10.872,7.749 10.491,7.75 10.075,7.75 Z m 2.675,1.175 c 0,-0.416 10e-4,-0.797 -0.037,-1.107 -0.041,-0.329 -0.137,-0.68 -0.405,-0.98 l -1.121,0.996 c -0.015,-0.017 0.015,-0.008 0.037,0.17 0.025,0.195 0.026,0.466 0.026,0.921 z m -1.584,-1.112 0.02,0.02 1.122,-0.995 A 2,2 0 0 0 12.162,8.192 Z M 7.925,7.75 C 7.509,7.75 7.128,7.749 6.818,7.787 6.489,7.828 6.138,7.924 5.838,8.192 L 6.834,9.313 C 6.817,9.328 6.826,9.298 7.004,9.276 7.199,9.251 7.47,9.25 7.925,9.25 Z M 6.75,10.425 C 6.75,9.97 6.751,9.699 6.776,9.503 6.798,9.326 6.828,9.317 6.813,9.333 L 5.692,8.338 C 5.424,8.638 5.328,8.989 5.287,9.318 5.249,9.628 5.25,10.009 5.25,10.425 Z M 5.838,8.192 Q 5.761,8.261 5.692,8.338 l 1.121,0.996 0.02,-0.02 z M 7,16.25 h 4 v -1.5 H 7 Z"
     id="path2" />
  <path
     style="fill:#000000"
     d="M 23.01425,5.5926236 C 16.797988,11.305951 16.797988,11.305951 16.797988,11.305951"
     id="path3" />
  <path
     style="fill:#000000;stroke:#696969;stroke-linecap:round;stroke-opacity:1;stroke-width:1.3;stroke-dasharray:none"
     d="M 19.111484,9.1936296 15.792121,12.010059"
     id="path4"
     sodipodi:nodetypes="cc" />
  <path
     style="fill:#000000;stroke:#696969;stroke-linecap:round;stroke-opacity:1;stroke-width:1.3;stroke-dasharray:none"
     d="M 19.141241,14.883068 15.821878,12.066639"
     id="path4-9"
     sodipodi:nodetypes="cc" />
</svg>
